<svg class="ngn-lockup" viewBox="0 0 573 48" xmlns="http://www.w3.org/2000/svg">
    <defs>
        <style>
            .ngn-lockup__monogram-block {fill: var(--wp--custom--color--emphasize, #000) }
            .ngn-lockup__monogram-letter {fill: var(--wp--custom--color--background, #fff)}
            .ngn-lockup__wordmark-letter {fill: var(--wp--custom--color--emphasize, #000) }
            .ngn-lockup__arrow {fill: var(--wp--custom--color--accent, #cf2b28) }
        </style>
    </defs>
    <g class="ngn-lockup__monogram">
        <rect class="ngn-lockup__monogram-block" width="48" height="48"/>
        <path class="ngn-lockup__monogram-letter"
              d="M12 30.1752C12 26.8663 14.4988 24.3487 17.8053 24.3487C19.763 24.3487 21.5696 25.282 22.7612 27.0082L20.987 28.2747C20.1037 26.9419 18.9553 26.4328 17.8053 26.4328C15.7474 26.4328 14.3076 27.9831 14.3076 30.1752C14.3076 32.3672 15.8075 33.9175 17.8639 33.9175C19.7461 33.9175 20.8035 32.8084 21.0625 31.6083H17.6388V29.6661H23.3362C23.3701 29.9577 23.3778 30.2909 23.3778 30.5747C23.3778 33.4841 21.3292 36.0001 17.8639 36.0001C14.3986 36.0001 12 33.4825 12 30.1736V30.1752Z"
        />
        <path class="ngn-lockup__monogram-letter"
              d="M25.5147 35.8336V24.7407H27.514L33.6446 32.3534V24.7407H35.8489V35.8336H33.8172L27.7206 28.3025V35.8336H25.5163H25.5147Z"
        />
        <path class="ngn-lockup__monogram-letter"
              d="M12.7119 23.0929V12H14.7112L20.8418 19.6128V12H23.0461V23.0929H21.0144L14.9178 15.5619V23.0929H12.7135H12.7119Z"
        />
        <path class="ngn-lockup__arrow"
              d="M24.7647 12.0015V14.2182H32.0129L25.5509 20.6848L27.117 22.2537L33.6345 15.7315V23.0928H35.8497V12.0015H24.7647Z"
        />
    </g>
    <g class="ngn-lockup__wordmark">
        <path class="ngn-lockup__arrow" d="M544.6,10v5.7h18.7l-16.6,16.6l4,4l16.8-16.8v18.9h5.7V10H544.6z"/>
        <path class="ngn-lockup__wordmark-letter" d="M64,38.6V10.1h5.1l15.8,19.6V10.1h5.7v28.5h-5.2L69.7,19.2v19.4H64z"/>
        <path class="ngn-lockup__wordmark-letter" d="M93.6,28.5c0-5.9,4.6-10.5,10.8-10.5c6.2,0,10.8,4.6,10.8,10.5c0,5.9-4.6,10.5-10.8,10.5
			C98.1,39,93.6,34.4,93.6,28.5z M104.3,34.1c3.2,0,5.4-2.4,5.4-5.6c0-3.2-2.2-5.6-5.4-5.6c-3.2,0-5.4,2.4-5.4,5.6
			C98.9,31.7,101.2,34.1,104.3,34.1z"/>
        <path class="ngn-lockup__wordmark-letter" d="M117.6,18.4h5.2l0.1,2.8c1-2.1,3-3.2,5.2-3.2c1.2,0,2.2,0.3,2.6,0.5l-0.4,4.8c-0.5-0.2-1.4-0.5-2.5-0.5
			c-2.4,0-4.9,1.3-4.9,5.4v10.3h-5.4V18.4z"/>
        <path class="ngn-lockup__wordmark-letter" d="M129.9,22.9v-4.5h3.4v-6.5h5.2v6.5h6v4.5h-5.9v8.3c0,2.1,1.2,3,3,3c1,0,2.3-0.2,3.4-0.7l0.5,4.5
			c-1.2,0.6-3.2,1-4.9,1c-4.4,0-7.4-2.3-7.4-7v-9.1L129.9,22.9L129.9,22.9z"/>
        <path class="ngn-lockup__wordmark-letter" d="M147.1,38.6V9h5.4v11.5c1.1-1.3,3.1-2.6,6-2.6c4.6,0,7.9,3.1,7.9,7.9v12.7h-5.4V27.3c0-2.8-1.8-4.3-4.1-4.3
			c-2.3,0-4.4,1.5-4.4,4.3v11.3H147.1z"/>
        <path class="ngn-lockup__wordmark-letter" d="M168.7,28.5c0-6.2,4.4-10.5,10.4-10.5c5.5,0,9.8,3.7,9.8,9.8c0,0.7-0.1,1.5-0.2,2.3H174c0.4,2.4,2.8,4,5.4,4
			c2,0,3.7-0.9,5-2.8l3.8,2.9c-1.9,3.1-5.4,4.8-9,4.8C172.8,39,168.7,34.3,168.7,28.5z M183.8,26.5c-0.3-2.2-2.1-4-4.7-4
			c-2.6,0-4.7,1.7-5,4H183.8L183.8,26.5z"/>
        <path class="ngn-lockup__wordmark-letter" d="M190,32.8c0-3.8,3.5-6.4,8.8-6.4c1.4,0,2.9,0.2,4.2,0.7v-0.5c0-2.2-1.8-3.8-4.4-3.8c-2.3,0-4,1.1-5.3,2.5
			l-3.1-3.1c1.4-1.8,4.3-4.2,8.6-4.2c5.9,0,9.6,3.1,9.6,8.2v12.4h-5.1v-2.2c-1.1,1.6-3.2,2.7-5.7,2.7C193,39,190,36.5,190,32.8
			L190,32.8z M195.1,32.5c0,1.5,1.3,2.5,3.4,2.5c2.6,0,4.6-1.7,4.6-4.3c-1-0.4-2.3-0.8-3.9-0.8C196.7,29.9,195.1,31,195.1,32.5z"/>
        <path class="ngn-lockup__wordmark-letter" d="M214.2,31.4c1.2,1.9,3.3,3.1,5.3,3.1c1.6,0,2.9-0.6,2.9-1.8c0-1.1-1.1-1.4-3.5-2c-4.4-1-7.5-2.4-7.5-6.5
			c0-3.8,3.5-6.2,7.9-6.2c4.1,0,6.6,2,8.1,4.2l-3.4,2.8c-0.9-1.4-2.4-2.5-4.5-2.5c-1.7,0-2.9,0.6-2.9,1.6c0,1.1,1.3,1.4,3.8,2.1
			c4.5,1.1,7.3,2.5,7.3,6.5c0,4-3.7,6.3-8,6.3c-4,0-7.2-1.8-9-4.7L214.2,31.4L214.2,31.4z"/>
        <path class="ngn-lockup__wordmark-letter" d="M227.6,22.9v-4.5h3.4v-6.5h5.2v6.5h6v4.5h-5.9v8.3c0,2.1,1.2,3,3,3c1,0,2.3-0.2,3.4-0.7l0.5,4.5
			c-1.2,0.6-3.2,1-4.9,1c-4.4,0-7.4-2.3-7.4-7v-9.1L227.6,22.9L227.6,22.9z"/>
        <path class="ngn-lockup__wordmark-letter" d="M242.8,28.5c0-6.2,4.4-10.5,10.4-10.5c5.5,0,9.8,3.7,9.8,9.8c0,0.7-0.1,1.5-0.2,2.3h-14.6
			c0.4,2.4,2.8,4,5.4,4c2,0,3.7-0.9,5-2.8l3.8,2.9c-1.9,3.1-5.4,4.8-9,4.8C246.9,39,242.8,34.3,242.8,28.5z M257.9,26.5
			c-0.3-2.2-2.1-4-4.7-4c-2.6,0-4.7,1.7-5,4H257.9L257.9,26.5z"/>
        <path class="ngn-lockup__wordmark-letter" d="M265.4,18.4h5.2l0.1,2.8c1-2.1,3-3.2,5.2-3.2c1.2,0,2.2,0.3,2.6,0.5l-0.4,4.8c-0.5-0.2-1.4-0.5-2.5-0.5
			c-2.4,0-4.9,1.3-4.9,5.4v10.3h-5.4V18.4z"/>
        <path class="ngn-lockup__wordmark-letter" d="M280.1,38.6V18.4h5.1l0.1,2.3c1-1.4,3.2-2.8,6.2-2.8c4.7,0,8,3.1,8,7.9v12.7h-5.4V27.3c0-2.8-1.8-4.3-4.2-4.3
			c-2.4,0-4.5,1.5-4.5,4.3v11.3H280.1z"/>
        <path class="ngn-lockup__wordmark-letter" d="M310.2,24.3c0-8.3,6.3-14.7,14.6-14.7c4.9,0,9.5,2.4,12.5,6.7l-4.5,3.2c-2.2-3.4-5.1-4.6-8-4.6
			c-5.2,0-8.8,3.9-8.8,9.4s3.8,9.4,9,9.4c4.7,0,7.4-2.8,8.1-5.8h-8.6V23h14.4c0.1,0.7,0.1,1.6,0.1,2.3c0,7.3-5.2,13.7-13.9,13.7
			C316.2,39,310.2,32.6,310.2,24.3L310.2,24.3z"/>
        <path class="ngn-lockup__wordmark-letter" d="M346.6,38.6h-5.4V9h5.4V38.6z"/>
        <path class="ngn-lockup__wordmark-letter" d="M349.1,28.5c0-5.9,4.6-10.5,10.8-10.5c6.2,0,10.8,4.6,10.8,10.5c0,5.9-4.6,10.5-10.8,10.5
			C353.7,39,349.1,34.4,349.1,28.5z M359.9,34.1c3.2,0,5.4-2.4,5.4-5.6c0-3.2-2.2-5.6-5.4-5.6c-3.2,0-5.4,2.4-5.4,5.6
			C354.5,31.7,356.7,34.1,359.9,34.1z"/>
        <path class="ngn-lockup__wordmark-letter" d="M373.1,38.6V9h5.3v11.8c1.3-1.7,3.4-2.9,6.6-2.9c5.7,0,9.8,4.3,9.8,10.5c0,6.1-4.1,10.5-9.8,10.5
			c-3,0-5.3-1-6.6-2.6l-0.1,2.1H373.1L373.1,38.6z M384,34.2c3.2,0,5.5-2.5,5.5-5.7c0-3.2-2.2-5.6-5.5-5.6s-5.5,2.4-5.5,5.6
			S380.8,34.2,384,34.2z"/>
        <path class="ngn-lockup__wordmark-letter" d="M396,32.8c0-3.8,3.5-6.4,8.8-6.4c1.4,0,2.9,0.2,4.2,0.7v-0.5c0-2.2-1.8-3.8-4.4-3.8c-2.3,0-4,1.1-5.3,2.5
			l-3.1-3.1c1.4-1.8,4.3-4.2,8.6-4.2c5.9,0,9.6,3.1,9.6,8.2v12.4h-5.1v-2.2c-1.1,1.6-3.2,2.7-5.7,2.7C399,39,396,36.5,396,32.8
			L396,32.8z M401.1,32.5c0,1.5,1.3,2.5,3.4,2.5c2.6,0,4.6-1.7,4.6-4.3c-1-0.4-2.3-0.8-3.9-0.8C402.7,29.9,401.1,31,401.1,32.5z"/>
        <path class="ngn-lockup__wordmark-letter" d="M423.5,38.6h-5.4V9h5.4V38.6z"/>
        <path class="ngn-lockup__wordmark-letter" d="M436.3,38.6V10.1h5.1l15.8,19.6V10.1h5.7v28.5h-5.2l-15.7-19.4v19.4H436.3z"/>
        <path class="ngn-lockup__wordmark-letter" d="M465.9,28.5c0-6.2,4.4-10.5,10.4-10.5c5.5,0,9.8,3.7,9.8,9.8c0,0.7-0.1,1.5-0.2,2.3h-14.6
			c0.4,2.4,2.8,4,5.4,4c2,0,3.7-0.9,5-2.8l3.8,2.9c-1.9,3.1-5.4,4.8-9,4.8C470,39,465.9,34.3,465.9,28.5z M481,26.5
			c-0.3-2.2-2.1-4-4.7-4s-4.7,1.7-5,4H481L481,26.5z"/>
        <path class="ngn-lockup__wordmark-letter" d="M486.1,18.4h5.6l4,14.7l4.3-14.4h4.8l4.3,14.4l4-14.7h5.6l-5.9,20.2H506l-3.6-12.2l-3.6,12.2h-6.7L486.1,18.4
			z"/>
        <path class="ngn-lockup__wordmark-letter" d="M522.1,31.4c1.2,1.9,3.3,3.1,5.3,3.1c1.6,0,2.9-0.6,2.9-1.8c0-1.1-1.1-1.4-3.5-2c-4.4-1-7.5-2.4-7.5-6.5
			c0-3.8,3.5-6.2,7.9-6.2c4.1,0,6.6,2,8.1,4.2l-3.4,2.8c-0.9-1.4-2.4-2.5-4.5-2.5c-1.7,0-2.9,0.6-2.9,1.6c0,1.1,1.3,1.4,3.8,2.1
			c4.5,1.1,7.3,2.5,7.3,6.5c0,4-3.7,6.3-8,6.3c-4,0-7.2-1.8-9-4.7L522.1,31.4L522.1,31.4z"/>

    </g>
</svg>